# Blender v2.80 (sub 75) OBJ File: 'ChessBoard.blend'
# www.blender.org
mtllib ChessBoard.mtl
o Cube
v 1.000000 0.408576 -1.000000
v 1.000000 0.217715 -1.000000
v 1.000000 0.408576 1.000000
v 1.000000 0.217715 1.000000
v -1.000000 0.408576 -1.000000
v -1.000000 0.217715 -1.000000
v -1.000000 0.408576 1.000000
v -1.000000 0.217715 1.000000
vt 0.375000 0.750000
vt 0.625000 0.750000
vt 0.625000 1.000000
vt 0.375000 1.000000
vt 0.375000 0.000000
vt 0.625000 0.000000
vt 0.625000 0.250000
vt 0.375000 0.250000
vt 0.125000 0.500000
vt 0.375000 0.500000
vt 0.125000 0.750000
vt 0.625000 0.500000
vn 0.0000 0.0000 1.0000
vn -1.0000 0.0000 0.0000
vn 0.0000 -1.0000 0.0000
vn 1.0000 0.0000 0.0000
vn 0.0000 0.0000 -1.0000
usemtl Material.004
s off
f 4/1/1 3/2/1 7/3/1 8/4/1
f 8/5/2 7/6/2 5/7/2 6/8/2
f 6/9/3 2/10/3 4/1/3 8/11/3
f 2/10/4 1/12/4 3/2/4 4/1/4
f 6/8/5 5/7/5 1/12/5 2/10/5
o Cube.001
v 1.000000 0.403098 -1.000000
v 1.000000 0.403098 1.000000
v -1.000000 0.403098 -1.000000
v -1.000000 0.403098 1.000000
v 0.750000 0.403098 1.000000
v 0.500000 0.403098 1.000000
v 0.250000 0.403098 1.000000
v 0.000000 0.403098 1.000000
v -0.250000 0.403098 1.000000
v -0.500000 0.403098 1.000000
v -0.750000 0.403098 1.000000
v -0.750000 0.403098 -1.000000
v -0.500000 0.403098 -1.000000
v -0.250000 0.403098 -1.000000
v 0.000000 0.403098 -1.000000
v 0.250000 0.403098 -1.000000
v 0.500000 0.403098 -1.000000
v 0.750000 0.403098 -1.000000
v 1.000000 0.403098 -0.750000
v 1.000000 0.403098 -0.500000
v 1.000000 0.403098 -0.250000
v 1.000000 0.403098 0.000000
v 1.000000 0.403098 0.250000
v 1.000000 0.403098 0.500000
v 1.000000 0.403098 0.750000
v -1.000000 0.403098 0.750000
v -1.000000 0.403098 0.500000
v -1.000000 0.403098 0.250000
v -1.000000 0.403098 0.000000
v -1.000000 0.403098 -0.250000
v -1.000000 0.403098 -0.500000
v -1.000000 0.403098 -0.750000
v 0.750000 0.403098 -0.750000
v 0.750000 0.403098 -0.500000
v 0.750000 0.403098 -0.250000
v 0.750000 0.403098 0.000000
v 0.750000 0.403098 0.250000
v 0.750000 0.403098 0.500000
v 0.750000 0.403098 0.750000
v 0.500000 0.403098 -0.750000
v 0.500000 0.403098 -0.500000
v 0.500000 0.403098 -0.250000
v 0.500000 0.403098 0.000000
v 0.500000 0.403098 0.250000
v 0.500000 0.403098 0.500000
v 0.500000 0.403098 0.750000
v 0.250000 0.403098 -0.750000
v 0.250000 0.403098 -0.500000
v 0.250000 0.403098 -0.250000
v 0.250000 0.403098 0.000000
v 0.250000 0.403098 0.250000
v 0.250000 0.403098 0.500000
v 0.250000 0.403098 0.750000
v 0.000000 0.403098 -0.750000
v 0.000000 0.403098 -0.500000
v 0.000000 0.403098 -0.250000
v 0.000000 0.403098 0.000000
v 0.000000 0.403098 0.250000
v 0.000000 0.403098 0.500000
v 0.000000 0.403098 0.750000
v -0.250000 0.403098 -0.750000
v -0.250000 0.403098 -0.500000
v -0.250000 0.403098 -0.250000
v -0.250000 0.403098 0.000000
v -0.250000 0.403098 0.250000
v -0.250000 0.403098 0.500000
v -0.250000 0.403098 0.750000
v -0.500000 0.403098 -0.750000
v -0.500000 0.403098 -0.500000
v -0.500000 0.403098 -0.250000
v -0.500000 0.403098 0.000000
v -0.500000 0.403098 0.250000
v -0.500000 0.403098 0.500000
v -0.500000 0.403098 0.750000
v -0.750000 0.403098 -0.750000
v -0.750000 0.403098 -0.500000
v -0.750000 0.403098 -0.250000
v -0.750000 0.403098 0.000000
v -0.750000 0.403098 0.250000
v -0.750000 0.403098 0.500000
v -0.750000 0.403098 0.750000
vt 0.625000 0.718750
vt 0.656250 0.718750
vt 0.656250 0.750000
vt 0.625000 0.750000
vt 0.687500 0.718750
vt 0.718750 0.718750
vt 0.718750 0.750000
vt 0.687500 0.750000
vt 0.750000 0.718750
vt 0.781250 0.718750
vt 0.781250 0.750000
vt 0.750000 0.750000
vt 0.812500 0.718750
vt 0.843750 0.718750
vt 0.843750 0.750000
vt 0.812500 0.750000
vt 0.812500 0.531250
vt 0.843750 0.531250
vt 0.843750 0.562500
vt 0.812500 0.562500
vt 0.812500 0.593750
vt 0.843750 0.593750
vt 0.843750 0.625000
vt 0.812500 0.625000
vt 0.812500 0.656250
vt 0.843750 0.656250
vt 0.843750 0.687500
vt 0.812500 0.687500
vt 0.781250 0.500000
vt 0.812500 0.500000
vt 0.781250 0.531250
vt 0.781250 0.562500
vt 0.781250 0.593750
vt 0.781250 0.625000
vt 0.781250 0.656250
vt 0.781250 0.687500
vt 0.750000 0.531250
vt 0.750000 0.562500
vt 0.750000 0.593750
vt 0.750000 0.625000
vt 0.750000 0.656250
vt 0.750000 0.687500
vt 0.718750 0.500000
vt 0.750000 0.500000
vt 0.718750 0.531250
vt 0.718750 0.562500
vt 0.718750 0.593750
vt 0.718750 0.625000
vt 0.718750 0.656250
vt 0.718750 0.687500
vt 0.687500 0.531250
vt 0.687500 0.562500
vt 0.687500 0.593750
vt 0.687500 0.625000
vt 0.687500 0.656250
vt 0.687500 0.687500
vt 0.656250 0.500000
vt 0.687500 0.500000
vt 0.656250 0.531250
vt 0.656250 0.562500
vt 0.656250 0.593750
vt 0.656250 0.625000
vt 0.656250 0.656250
vt 0.656250 0.687500
vt 0.625000 0.531250
vt 0.625000 0.562500
vt 0.625000 0.593750
vt 0.625000 0.625000
vt 0.625000 0.656250
vt 0.625000 0.687500
vt 0.843750 0.500000
vt 0.875000 0.500000
vt 0.875000 0.531250
vt 0.875000 0.562500
vt 0.875000 0.593750
vt 0.875000 0.625000
vt 0.875000 0.656250
vt 0.875000 0.687500
vt 0.875000 0.718750
vt 0.875000 0.750000
vt 0.625000 0.500000
vn 0.0000 1.0000 0.0000
usemtl White
s off
f 33/13/6 47/14/6 13/15/6 10/16/6
f 54/17/6 61/18/6 15/19/6 14/20/6
f 68/21/6 75/22/6 17/23/6 16/24/6
f 82/25/6 89/26/6 19/27/6 18/28/6
f 76/29/6 83/30/6 84/31/6 77/32/6
f 78/33/6 85/34/6 86/35/6 79/36/6
f 80/37/6 87/38/6 88/39/6 81/40/6
f 22/41/6 21/42/6 76/29/6 69/43/6
f 70/44/6 77/32/6 78/33/6 71/45/6
f 72/46/6 79/36/6 80/37/6 73/47/6
f 74/48/6 81/40/6 82/25/6 75/22/6
f 62/49/6 69/43/6 70/44/6 63/50/6
f 64/51/6 71/45/6 72/46/6 65/52/6
f 66/53/6 73/47/6 74/48/6 67/54/6
f 24/55/6 23/56/6 62/49/6 55/57/6
f 56/58/6 63/50/6 64/51/6 57/59/6
f 58/60/6 65/52/6 66/53/6 59/61/6
f 60/62/6 67/54/6 68/21/6 61/18/6
f 48/63/6 55/57/6 56/58/6 49/64/6
f 50/65/6 57/59/6 58/60/6 51/66/6
f 52/67/6 59/61/6 60/62/6 53/68/6
f 26/69/6 25/70/6 48/63/6 41/71/6
f 42/72/6 49/64/6 50/65/6 43/73/6
f 44/74/6 51/66/6 52/67/6 45/75/6
f 46/76/6 53/68/6 54/17/6 47/14/6
f 27/77/6 41/71/6 42/72/6 28/78/6
f 29/79/6 43/73/6 44/74/6 30/80/6
f 31/81/6 45/75/6 46/76/6 32/82/6
f 20/83/6 11/84/6 40/85/6 83/30/6
f 84/31/6 39/86/6 38/87/6 85/34/6
f 86/35/6 37/88/6 36/89/6 87/38/6
f 88/39/6 35/90/6 34/91/6 89/26/6
usemtl Black
f 89/26/6 34/91/6 12/92/6 19/27/6
f 47/14/6 54/17/6 14/20/6 13/15/6
f 61/18/6 68/21/6 16/24/6 15/19/6
f 75/22/6 82/25/6 18/28/6 17/23/6
f 21/42/6 20/83/6 83/30/6 76/29/6
f 77/32/6 84/31/6 85/34/6 78/33/6
f 79/36/6 86/35/6 87/38/6 80/37/6
f 81/40/6 88/39/6 89/26/6 82/25/6
f 69/43/6 76/29/6 77/32/6 70/44/6
f 71/45/6 78/33/6 79/36/6 72/46/6
f 73/47/6 80/37/6 81/40/6 74/48/6
f 23/56/6 22/41/6 69/43/6 62/49/6
f 63/50/6 70/44/6 71/45/6 64/51/6
f 65/52/6 72/46/6 73/47/6 66/53/6
f 67/54/6 74/48/6 75/22/6 68/21/6
f 55/57/6 62/49/6 63/50/6 56/58/6
f 57/59/6 64/51/6 65/52/6 58/60/6
f 59/61/6 66/53/6 67/54/6 60/62/6
f 25/70/6 24/55/6 55/57/6 48/63/6
f 49/64/6 56/58/6 57/59/6 50/65/6
f 51/66/6 58/60/6 59/61/6 52/67/6
f 53/68/6 60/62/6 61/18/6 54/17/6
f 41/71/6 48/63/6 49/64/6 42/72/6
f 43/73/6 50/65/6 51/66/6 44/74/6
f 45/75/6 52/67/6 53/68/6 46/76/6
f 9/93/6 26/69/6 41/71/6 27/77/6
f 28/78/6 42/72/6 43/73/6 29/79/6
f 30/80/6 44/74/6 45/75/6 31/81/6
f 32/82/6 46/76/6 47/14/6 33/13/6
f 83/30/6 40/85/6 39/86/6 84/31/6
f 85/34/6 38/87/6 37/88/6 86/35/6
f 87/38/6 36/89/6 35/90/6 88/39/6
